<svg width="18" height="18" viewBox="0 0 18 18" fill="none" xmlns="http://www.w3.org/2000/svg">
<path d="M8.19711 17.0631C7.83711 17.0631 7.47714 16.9731 7.14714 16.7931C6.47964 16.4181 6.08211 15.7506 6.08211 14.9931V10.9806C6.08211 10.5981 5.8346 10.0356 5.6021 9.74313L2.75211 6.75063C2.27961 6.27813 1.91211 5.45313 1.91211 4.84563V3.10564C1.91211 1.89814 2.82712 0.953125 3.98962 0.953125H13.9946C15.1421 0.953125 16.0721 1.88314 16.0721 3.03064V4.69564C16.0721 5.48314 15.5996 6.39062 15.1496 6.83312C14.9321 7.05062 14.5721 7.05062 14.3546 6.83312C14.1371 6.61562 14.1371 6.25562 14.3546 6.03812C14.6321 5.76062 14.9471 5.13814 14.9471 4.69564V3.03064C14.9471 2.50564 14.5196 2.07812 13.9946 2.07812H3.98962C3.45712 2.07812 3.03711 2.52814 3.03711 3.10564V4.84563C3.03711 5.12313 3.26211 5.67064 3.55461 5.96314L6.44214 9.00063C6.82464 9.47313 7.1996 10.2681 7.1996 10.9806V14.9931C7.1996 15.4881 7.53712 15.7281 7.68712 15.8106C8.00962 15.9906 8.39214 15.9831 8.69214 15.8031L9.74211 15.1281C9.95961 15.0006 10.1696 14.5881 10.1696 14.3106C10.1696 14.0031 10.4246 13.7481 10.7321 13.7481C11.0396 13.7481 11.2946 14.0031 11.2946 14.3106C11.2946 14.9856 10.8746 15.7581 10.3421 16.0806L9.29964 16.7556C8.96214 16.9581 8.57961 17.0631 8.19711 17.0631Z" fill="#023452"/>
<path d="M12.0524 12.9523C10.4174 12.9523 9.08984 11.6249 9.08984 9.98985C9.08984 8.35485 10.4174 7.02734 12.0524 7.02734C13.6874 7.02734 15.0149 8.35485 15.0149 9.98985C15.0149 11.6249 13.6874 12.9523 12.0524 12.9523ZM12.0524 8.15234C11.0399 8.15234 10.2148 8.97735 10.2148 9.98985C10.2148 11.0024 11.0399 11.8273 12.0524 11.8273C13.0649 11.8273 13.8899 11.0024 13.8899 9.98985C13.8899 8.97735 13.0649 8.15234 12.0524 8.15234Z" fill="#023452"/>
<path d="M14.9024 13.4024C14.7599 13.4024 14.6174 13.3499 14.5049 13.2374L13.7549 12.4874C13.5374 12.2699 13.5374 11.9099 13.7549 11.6924C13.9724 11.4749 14.3324 11.4749 14.5499 11.6924L15.2999 12.4424C15.5174 12.6599 15.5174 13.0199 15.2999 13.2374C15.1949 13.3424 15.0449 13.4024 14.9024 13.4024Z" fill="#023452"/>
</svg>
